<svg xmlns="http://www.w3.org/2000/svg" width="18.068" height="16" viewBox="0 0 18.068 16">
  <g id="c69daeed83263f4181af64089e81c7b6" transform="translate(-10 -66.1)">
    <path id="Path_6" data-name="Path 6" d="M25.827,68.017A8.684,8.684,0,0,0,20.112,66.1C14.093,66.1,10,70.654,10,70.654l1.154,1.8s.638.052.3-1a6.816,6.816,0,0,1,1.978-2.107V81.293c-.481.133-1.115.383-.682.807h3.313c.437-.43-.253-.688-.671-.807V78.472a14.9,14.9,0,0,0,4.721.874,9.029,9.029,0,0,0,5.566-1.761,5.942,5.942,0,0,0,2.389-4.734A6.3,6.3,0,0,0,25.827,68.017ZM24.07,76.639a5.924,5.924,0,0,1-4.161,1.589,10.774,10.774,0,0,1-4.518-.863V68.4a8.615,8.615,0,0,1,4.518-1.29,5.679,5.679,0,0,1,4.236,1.707,5.743,5.743,0,0,1,1.5,4A5.2,5.2,0,0,1,24.07,76.639Z" fill="#fff"/>
  </g>
</svg>
