<svg xmlns="http://www.w3.org/2000/svg" width="19.02" height="16" viewBox="0 0 19.02 16">
  <path id="iconfinder_plurk_4691230" d="M10.225,1.906A7.977,7.977,0,0,0,3.98,4.844q-.115.139-.224.283l0,0a2.151,2.151,0,0,1,.568-.353l.046-.018a1.3,1.3,0,0,1,.713-.07c1.141.229,1.736,2.068,1.327,4.108S4.75,12.3,3.608,12.071c-.8-.16-1.33-1.113-1.436-2.371v.037c0,.1,0,.211,0,.317v.058l0,.047c0,.118.01.235.019.351,0,.053.01.106.015.159A7.95,7.95,0,0,0,2.97,13.4a.237.237,0,0,1-.062.288l-.22.179a.718.718,0,0,0-.23.769.035.035,0,0,0,0,.013.757.757,0,0,0,.047.113l.04-.031.182-.138a.207.207,0,1,1,.25.33l-.194.147-.029.022.933,1.148a.721.721,0,0,0,1.01.1l.2-.166a.236.236,0,0,1,.3,0,7.99,7.99,0,0,0,9.589.258.236.236,0,0,1,.3.02l.129.124a.72.72,0,0,0,.934.047l0,0-.166-.156a.208.208,0,0,1,.284-.3l.178.166,1-1.051a.721.721,0,0,0-.026-1.016l-.208-.2a.235.235,0,0,1-.043-.285,7.973,7.973,0,0,0,.874-5.287,4,4,0,0,0,.847-1.024c.183-.4.23-.808-.256-.628a1.689,1.689,0,0,1-1.019.151A8.031,8.031,0,0,0,10.6,1.917q-.187-.01-.375-.011ZM1.8,5.346a.973.973,0,0,0-.857,1.4.977.977,0,1,0,.911,1.4,1.756,1.756,0,0,0,.617.652,4.43,4.43,0,0,0,.013.476c.081.973.491,1.712,1.11,1.835.883.177,1.854-.959,2.17-2.536s-.143-3-1.026-3.176A1.227,1.227,0,0,0,3.7,5.738a3.421,3.421,0,0,0-.9,1.371A.129.129,0,0,1,2.776,7.1c-.111-.032-.17-.1-.247-.12A.975.975,0,0,0,1.8,5.346Zm2.268.986a.619.619,0,0,1,.127.012c.575.113.875,1.04.669,2.067s-.838,1.767-1.413,1.652c-.391-.078-.653-.531-.717-1.136a1.42,1.42,0,0,0,.444.1.973.973,0,0,0,.9-.407c.274-.369.067-1.389-.3-1.522-.282-.1-.449.021-.7.04a1.982,1.982,0,0,1,.441-.571.876.876,0,0,1,.544-.234Z" transform="translate(-0.001 -1.906)" fill="#fff"/>
</svg>
